ffmpeg started on 2025-06-03 at 20:14:44
Report written to "D:\Convert\FFMetrics\reports\psnr_report-6.txt"
Log level: 32
Command line:
ffmpeg -hide_banner -nostdin -i "G:\\\xc0\xed\xe8\xec\xe5\\\xce\xed\xe3\xee\xe8\xed\xe3\xe8\\!_36_\xce\xf1\xe5\xed\xfc_2024\\DreamCast\\\xc1\xe0\xf8\xed\xff \xc1\xee\xe3\xe0\\\xd2\xc2-2\\[DC] Kami no Tou - Ouji no Kikan - 24_Telegram_HEVC.mkv" -i "G:\\\xc0\xed\xe8\xec\xe5\\\xce\xed\xe3\xee\xe8\xed\xe3\xe8\\!_36_\xce\xf1\xe5\xed\xfc_2024\\DreamCast\\\xc1\xe0\xf8\xed\xff \xc1\xee\xe3\xe0\\\xd2\xc2-2\\[DC] Kami no Tou - Ouji no Kikan - 24_Telegram.mp4" -lavfi "[0:v]settb=AVTB,setpts=PTS-STARTPTS,format=pix_fmts=yuv420p10,fps=24000/1001,scale=1920:1080:flags=bicubic[main];[1:v]settb=AVTB,setpts=PTS-STARTPTS,format=pix_fmts=yuv420p,fps=24000/1001,scale=1920:1080:flags=bicubic[ref];[main][ref]psnr=eof_action=endall:stats_file='D\\:/Convert/FFMetrics/logs/psnr_logfile-6.txt'" -f null -
Input #0, matroska,webm, from 'G:\Аниме\Онгоинги\!_36_Осень_2024\DreamCast\Башня Бога\ТВ-2\[DC] Kami no Tou - Ouji no Kikan - 24_Telegram_HEVC.mkv':
  Metadata:
    COMPATIBLE_BRANDS: isomiso2avc1mp41
    MAJOR_BRAND     : isom
    MINOR_VERSION   : 512
    ENCODER         : Lavf61.7.100
  Duration: 00:23:49.42, start: -0.021000, bitrate: 1133 kb/s
  Stream #0:0: Video: hevc (Main 10), yuv420p10le(tv, bt709, progressive), 1920x1080 [SAR 1:1 DAR 16:9], 23.98 fps, 23.98 tbr, 1k tbn (default)
      Metadata:
        HANDLER_NAME    : VideoHandler
        VENDOR_ID       : [0][0][0][0]
        ENCODER         : Lavc61.19.100 libx265
        BPS             : 936957
        DURATION        : 00:23:47.550708333
        NUMBER_OF_FRAMES: 34227
        NUMBER_OF_BYTES : 167194189
        _STATISTICS_WRITING_APP: mkvpropedit v66.0.0 ('Josie') 64-bit
        _STATISTICS_WRITING_DATE_UTC: 2025-05-30 06:35:48
        _STATISTICS_TAGS: BPS DURATION NUMBER_OF_FRAMES NUMBER_OF_BYTES
  Stream #0:1: Audio: aac (LC), 48000 Hz, stereo, fltp (default)
      Metadata:
        HANDLER_NAME    : SoundHandler
        VENDOR_ID       : [0][0][0][0]
        ENCODER         : Lavc61.19.100 aac
        BPS             : 193454
        DURATION        : 00:23:49.418000000
        NUMBER_OF_FRAMES: 67005
        NUMBER_OF_BYTES : 34565848
        _STATISTICS_WRITING_APP: mkvpropedit v66.0.0 ('Josie') 64-bit
        _STATISTICS_WRITING_DATE_UTC: 2025-05-30 06:35:48
        _STATISTICS_TAGS: BPS DURATION NUMBER_OF_FRAMES NUMBER_OF_BYTES
Input #1, mov,mp4,m4a,3gp,3g2,mj2, from 'G:\Аниме\Онгоинги\!_36_Осень_2024\DreamCast\Башня Бога\ТВ-2\[DC] Kami no Tou - Ouji no Kikan - 24_Telegram.mp4':
  Metadata:
    major_brand     : isom
    minor_version   : 512
    compatible_brands: isomiso2avc1mp41
    encoder         : Lavf61.1.100
  Duration: 00:23:49.39, start: 0.000000, bitrate: 3632 kb/s
  Stream #1:0[0x1](und): Video: h264 (High) (avc1 / 0x31637661), yuv420p(tv, bt709, progressive), 1920x1080 [SAR 1:1 DAR 16:9], 3489 kb/s, 23.98 fps, 23.98 tbr, 24k tbn (default)
      Metadata:
        handler_name    : VideoHandler
        vendor_id       : [0][0][0][0]
        encoder         : Lavc61.3.100 h264_qsv
  Stream #1:1[0x2](und): Audio: aac (HE-AACv2) (mp4a / 0x6134706D), 48000 Hz, stereo, fltp, 144 kb/s (default)
      Metadata:
        handler_name    : SoundHandler
        vendor_id       : [0][0][0][0]
Stream mapping:
  Stream #0:0 (hevc) -> settb:default
  Stream #1:0 (h264) -> settb:default
  psnr:default -> Stream #0:0 (wrapped_avframe)
  Stream #0:1 -> #0:1 (aac (native) -> pcm_s16le (native))
Output #0, null, to 'pipe:':
  Metadata:
    COMPATIBLE_BRANDS: isomiso2avc1mp41
    MAJOR_BRAND     : isom
    MINOR_VERSION   : 512
    encoder         : Lavf61.7.100
  Stream #0:0: Video: wrapped_avframe, yuv420p10le(tv, bt709, progressive), 1920x1080 [SAR 1:1 DAR 16:9], q=2-31, 200 kb/s, 23.98 fps, 23.98 tbn
      Metadata:
        encoder         : Lavc61.19.100 wrapped_avframe
  Stream #0:1: Audio: pcm_s16le, 48000 Hz, stereo, s16, 1536 kb/s (default)
      Metadata:
        HANDLER_NAME    : SoundHandler
        VENDOR_ID       : [0][0][0][0]
        _STATISTICS_TAGS: BPS DURATION NUMBER_OF_FRAMES NUMBER_OF_BYTES
        BPS             : 193454
        DURATION        : 00:23:49.418000000
        NUMBER_OF_FRAMES: 67005
        NUMBER_OF_BYTES : 34565848
        _STATISTICS_WRITING_APP: mkvpropedit v66.0.0 ('Josie') 64-bit
        _STATISTICS_WRITING_DATE_UTC: 2025-05-30 06:35:48
        encoder         : Lavc61.19.100 pcm_s16le
frame=  172 fps=0.0 q=-0.0 size=N/A time=00:00:07.17 bitrate=N/A speed=13.7x    frame=  451 fps=438 q=-0.0 size=N/A time=00:00:18.81 bitrate=N/A speed=18.2x    frame=  755 fps=485 q=-0.0 size=N/A time=00:00:31.48 bitrate=N/A speed=20.2x    frame= 1056 fps=507 q=-0.0 size=N/A time=00:00:44.04 bitrate=N/A speed=21.1x    frame= 1331 fps=514 q=-0.0 size=N/A time=00:00:55.51 bitrate=N/A speed=21.4x    frame= 1541 fps=495 q=-0.0 size=N/A time=00:01:04.27 bitrate=N/A speed=20.7x    frame= 1762 fps=487 q=-0.0 size=N/A time=00:01:13.49 bitrate=N/A speed=20.3x    frame= 1991 fps=481 q=-0.0 size=N/A time=00:01:23.04 bitrate=N/A speed=20.1x    frame= 2231 fps=478 q=-0.0 size=N/A time=00:01:33.05 bitrate=N/A speed=19.9x    frame= 2466 fps=477 q=-0.0 size=N/A time=00:01:42.85 bitrate=N/A speed=19.9x    frame= 2724 fps=478 q=-0.0 size=N/A time=00:01:53.61 bitrate=N/A speed=19.9x    frame= 2925 fps=472 q=-0.0 size=N/A time=00:02:01.99 bitrate=N/A speed=19.7x    frame= 3126 fps=465 q=-0.0 size=N/A time=00:02:10.38 bitrate=N/A speed=19.4x    frame= 3362 fps=465 q=-0.0 size=N/A time=00:02:20.22 bitrate=N/A speed=19.4x    frame= 3609 fps=465 q=-0.0 size=N/A time=00:02:30.52 bitrate=N/A speed=19.4x    frame= 3852 fps=466 q=-0.0 size=N/A time=00:02:40.66 bitrate=N/A speed=19.4x    frame= 4136 fps=471 q=-0.0 size=N/A time=00:02:52.50 bitrate=N/A speed=19.6x    frame= 4395 fps=473 q=-0.0 size=N/A time=00:03:03.30 bitrate=N/A speed=19.7x    frame= 4683 fps=477 q=-0.0 size=N/A time=00:03:15.32 bitrate=N/A speed=19.9x    frame= 4955 fps=480 q=-0.0 size=N/A time=00:03:26.66 bitrate=N/A speed=  20x    frame= 5238 fps=483 q=-0.0 size=N/A time=00:03:38.46 bitrate=N/A speed=20.1x    frame= 5504 fps=485 q=-0.0 size=N/A time=00:03:49.56 bitrate=N/A speed=20.2x    frame= 5766 fps=485 q=-0.0 size=N/A time=00:04:00.49 bitrate=N/A speed=20.2x    frame= 6043 fps=488 q=-0.0 size=N/A time=00:04:12.04 bitrate=N/A speed=20.3x    frame= 6333 fps=490 q=-0.0 size=N/A time=00:04:24.13 bitrate=N/A speed=20.5x    frame= 6589 fps=491 q=-0.0 size=N/A time=00:04:34.81 bitrate=N/A speed=20.5x    frame= 6873 fps=493 q=-0.0 size=N/A time=00:04:46.66 bitrate=N/A speed=20.6x    frame= 7146 fps=494 q=-0.0 size=N/A time=00:04:58.08 bitrate=N/A speed=20.6x    frame= 7443 fps=497 q=-0.0 size=N/A time=00:05:10.43 bitrate=N/A speed=20.7x    frame= 7699 fps=497 q=-0.0 size=N/A time=00:05:21.11 bitrate=N/A speed=20.7x    frame= 7974 fps=498 q=-0.0 size=N/A time=00:05:32.58 bitrate=N/A speed=20.8x    frame= 8208 fps=497 q=-0.0 size=N/A time=00:05:42.34 bitrate=N/A speed=20.7x    frame= 8483 fps=498 q=-0.0 size=N/A time=00:05:53.81 bitrate=N/A speed=20.8x    frame= 8698 fps=496 q=-0.0 size=N/A time=00:06:02.77 bitrate=N/A speed=20.7x    frame= 8979 fps=497 q=-0.0 size=N/A time=00:06:14.49 bitrate=N/A speed=20.7x    frame= 9237 fps=497 q=-0.0 size=N/A time=00:06:25.25 bitrate=N/A speed=20.7x    frame= 9497 fps=497 q=-0.0 size=N/A time=00:06:36.10 bitrate=N/A speed=20.7x    frame= 9762 fps=498 q=-0.0 size=N/A time=00:06:47.15 bitrate=N/A speed=20.8x    frame=10035 fps=499 q=-0.0 size=N/A time=00:06:58.54 bitrate=N/A speed=20.8x    frame=10297 fps=499 q=-0.0 size=N/A time=00:07:09.47 bitrate=N/A speed=20.8x    frame=10567 fps=499 q=-0.0 size=N/A time=00:07:20.73 bitrate=N/A speed=20.8x    frame=10850 fps=500 q=-0.0 size=N/A time=00:07:32.53 bitrate=N/A speed=20.9x    frame=11134 fps=501 q=-0.0 size=N/A time=00:07:44.38 bitrate=N/A speed=20.9x    frame=11408 fps=502 q=-0.0 size=N/A time=00:07:55.80 bitrate=N/A speed=20.9x    frame=11700 fps=504 q=-0.0 size=N/A time=00:08:07.98 bitrate=N/A speed=  21x    frame=11970 fps=504 q=-0.0 size=N/A time=00:08:19.24 bitrate=N/A speed=  21x    frame=12247 fps=505 q=-0.0 size=N/A time=00:08:30.80 bitrate=N/A speed=  21x    frame=12512 fps=505 q=-0.0 size=N/A time=00:08:41.85 bitrate=N/A speed=21.1x    frame=12798 fps=506 q=-0.0 size=N/A time=00:08:53.78 bitrate=N/A speed=21.1x    frame=13081 fps=507 q=-0.0 size=N/A time=00:09:05.58 bitrate=N/A speed=21.1x    frame=13367 fps=508 q=-0.0 size=N/A time=00:09:17.51 bitrate=N/A speed=21.2x    frame=13668 fps=509 q=-0.0 size=N/A time=00:09:30.06 bitrate=N/A speed=21.2x    frame=13953 fps=510 q=-0.0 size=N/A time=00:09:41.95 bitrate=N/A speed=21.3x    frame=14230 fps=510 q=-0.0 size=N/A time=00:09:53.50 bitrate=N/A speed=21.3x    frame=14527 fps=511 q=-0.0 size=N/A time=00:10:05.89 bitrate=N/A speed=21.3x    frame=14802 fps=512 q=-0.0 size=N/A time=00:10:17.36 bitrate=N/A speed=21.3x    frame=15072 fps=512 q=-0.0 size=N/A time=00:10:28.62 bitrate=N/A speed=21.3x    frame=15281 fps=510 q=-0.0 size=N/A time=00:10:37.34 bitrate=N/A speed=21.3x    frame=15515 fps=509 q=-0.0 size=N/A time=00:10:47.10 bitrate=N/A speed=21.2x    frame=15742 fps=508 q=-0.0 size=N/A time=00:10:56.57 bitrate=N/A speed=21.2x    frame=16002 fps=508 q=-0.0 size=N/A time=00:11:07.41 bitrate=N/A speed=21.2x    frame=16247 fps=507 q=-0.0 size=N/A time=00:11:17.63 bitrate=N/A speed=21.2x    frame=16527 fps=508 q=-0.0 size=N/A time=00:11:29.31 bitrate=N/A speed=21.2x    frame=16812 fps=509 q=-0.0 size=N/A time=00:11:41.20 bitrate=N/A speed=21.2x    frame=17055 fps=508 q=-0.0 size=N/A time=00:11:51.33 bitrate=N/A speed=21.2x    frame=17323 fps=508 q=-0.0 size=N/A time=00:12:02.51 bitrate=N/A speed=21.2x    frame=17606 fps=509 q=-0.0 size=N/A time=00:12:14.31 bitrate=N/A speed=21.2x    frame=17885 fps=509 q=-0.0 size=N/A time=00:12:25.95 bitrate=N/A speed=21.2x    frame=18174 fps=510 q=-0.0 size=N/A time=00:12:38.00 bitrate=N/A speed=21.3x    frame=18423 fps=510 q=-0.0 size=N/A time=00:12:48.39 bitrate=N/A speed=21.3x    frame=18690 fps=510 q=-0.0 size=N/A time=00:12:59.52 bitrate=N/A speed=21.3x    frame=18959 fps=510 q=-0.0 size=N/A time=00:13:10.74 bitrate=N/A speed=21.3x    frame=19228 fps=510 q=-0.0 size=N/A time=00:13:21.96 bitrate=N/A speed=21.3x    frame=19505 fps=511 q=-0.0 size=N/A time=00:13:33.52 bitrate=N/A speed=21.3x    frame=19798 fps=511 q=-0.0 size=N/A time=00:13:45.74 bitrate=N/A speed=21.3x    frame=20074 fps=512 q=-0.0 size=N/A time=00:13:57.25 bitrate=N/A speed=21.3x    frame=20300 fps=511 q=-0.0 size=N/A time=00:14:06.67 bitrate=N/A speed=21.3x    frame=20538 fps=510 q=-0.0 size=N/A time=00:14:16.60 bitrate=N/A speed=21.3x    frame=20827 fps=511 q=-0.0 size=N/A time=00:14:28.65 bitrate=N/A speed=21.3x    frame=21105 fps=511 q=-0.0 size=N/A time=00:14:40.25 bitrate=N/A speed=21.3x    frame=21370 fps=511 q=-0.0 size=N/A time=00:14:51.30 bitrate=N/A speed=21.3x    frame=21607 fps=510 q=-0.0 size=N/A time=00:15:01.19 bitrate=N/A speed=21.3x    frame=21885 fps=511 q=-0.0 size=N/A time=00:15:12.78 bitrate=N/A speed=21.3x    frame=22128 fps=510 q=-0.0 size=N/A time=00:15:22.92 bitrate=N/A speed=21.3x    frame=22388 fps=510 q=-0.0 size=N/A time=00:15:33.76 bitrate=N/A speed=21.3x    frame=22665 fps=511 q=-0.0 size=N/A time=00:15:45.31 bitrate=N/A speed=21.3x    frame=22917 fps=510 q=-0.0 size=N/A time=00:15:55.82 bitrate=N/A speed=21.3x    frame=23148 fps=510 q=-0.0 size=N/A time=00:16:05.46 bitrate=N/A speed=21.3x    frame=23359 fps=509 q=-0.0 size=N/A time=00:16:14.26 bitrate=N/A speed=21.2x    frame=23567 fps=507 q=-0.0 size=N/A time=00:16:22.94 bitrate=N/A speed=21.2x    frame=23803 fps=507 q=-0.0 size=N/A time=00:16:32.78 bitrate=N/A speed=21.1x    frame=24072 fps=507 q=-0.0 size=N/A time=00:16:44.00 bitrate=N/A speed=21.1x    frame=24312 fps=507 q=-0.0 size=N/A time=00:16:54.01 bitrate=N/A speed=21.1x    frame=24557 fps=506 q=-0.0 size=N/A time=00:17:04.23 bitrate=N/A speed=21.1x    frame=24789 fps=506 q=-0.0 size=N/A time=00:17:13.90 bitrate=N/A speed=21.1x    frame=25036 fps=505 q=-0.0 size=N/A time=00:17:24.20 bitrate=N/A speed=21.1x    frame=25297 fps=505 q=-0.0 size=N/A time=00:17:35.09 bitrate=N/A speed=21.1x    frame=25548 fps=505 q=-0.0 size=N/A time=00:17:45.56 bitrate=N/A speed=21.1x    frame=25784 fps=505 q=-0.0 size=N/A time=00:17:55.40 bitrate=N/A speed=  21x    frame=26022 fps=504 q=-0.0 size=N/A time=00:18:05.33 bitrate=N/A speed=  21x    frame=26276 fps=504 q=-0.0 size=N/A time=00:18:15.92 bitrate=N/A speed=  21x    frame=26554 fps=504 q=-0.0 size=N/A time=00:18:27.52 bitrate=N/A speed=  21x    frame=26829 fps=505 q=-0.0 size=N/A time=00:18:38.99 bitrate=N/A speed=21.1x    frame=27095 fps=505 q=-0.0 size=N/A time=00:18:50.08 bitrate=N/A speed=21.1x    frame=27378 fps=505 q=-0.0 size=N/A time=00:19:01.89 bitrate=N/A speed=21.1x    frame=27660 fps=506 q=-0.0 size=N/A time=00:19:13.65 bitrate=N/A speed=21.1x    frame=27911 fps=505 q=-0.0 size=N/A time=00:19:24.12 bitrate=N/A speed=21.1x    frame=28151 fps=505 q=-0.0 size=N/A time=00:19:34.13 bitrate=N/A speed=21.1x    frame=28393 fps=505 q=-0.0 size=N/A time=00:19:44.22 bitrate=N/A speed=21.1x    frame=28664 fps=505 q=-0.0 size=N/A time=00:19:55.52 bitrate=N/A speed=21.1x    frame=28946 fps=505 q=-0.0 size=N/A time=00:20:07.28 bitrate=N/A speed=21.1x    frame=29202 fps=505 q=-0.0 size=N/A time=00:20:17.96 bitrate=N/A speed=21.1x    frame=29479 fps=506 q=-0.0 size=N/A time=00:20:29.51 bitrate=N/A speed=21.1x    frame=29713 fps=505 q=-0.0 size=N/A time=00:20:39.27 bitrate=N/A speed=21.1x    frame=29952 fps=505 q=-0.0 size=N/A time=00:20:49.24 bitrate=N/A speed=21.1x    frame=30177 fps=504 q=-0.0 size=N/A time=00:20:58.63 bitrate=N/A speed=  21x    frame=30424 fps=504 q=-0.0 size=N/A time=00:21:08.93 bitrate=N/A speed=  21x    frame=30636 fps=503 q=-0.0 size=N/A time=00:21:17.77 bitrate=N/A speed=  21x    frame=30873 fps=503 q=-0.0 size=N/A time=00:21:27.66 bitrate=N/A speed=  21x    frame=31129 fps=503 q=-0.0 size=N/A time=00:21:38.33 bitrate=N/A speed=  21x    frame=31397 fps=503 q=-0.0 size=N/A time=00:21:49.51 bitrate=N/A speed=  21x    frame=31677 fps=503 q=-0.0 size=N/A time=00:22:01.19 bitrate=N/A speed=  21x    frame=31971 fps=504 q=-0.0 size=N/A time=00:22:13.45 bitrate=N/A speed=  21x    frame=32172 fps=503 q=-0.0 size=N/A time=00:22:21.84 bitrate=N/A speed=  21x    frame=32330 fps=501 q=-0.0 size=N/A time=00:22:28.43 bitrate=N/A speed=20.9x    frame=32470 fps=499 q=-0.0 size=N/A time=00:22:34.26 bitrate=N/A speed=20.8x    frame=32633 fps=498 q=-0.0 size=N/A time=00:22:41.06 bitrate=N/A speed=20.8x    frame=32763 fps=496 q=-0.0 size=N/A time=00:22:46.49 bitrate=N/A speed=20.7x    frame=32930 fps=495 q=-0.0 size=N/A time=00:22:53.45 bitrate=N/A speed=20.6x    frame=33108 fps=493 q=-0.0 size=N/A time=00:23:00.87 bitrate=N/A speed=20.6x    frame=33263 fps=492 q=-0.0 size=N/A time=00:23:07.34 bitrate=N/A speed=20.5x    frame=33422 fps=491 q=-0.0 size=N/A time=00:23:13.97 bitrate=N/A speed=20.5x    frame=33584 fps=489 q=-0.0 size=N/A time=00:23:20.73 bitrate=N/A speed=20.4x    frame=33733 fps=488 q=-0.0 size=N/A time=00:23:26.94 bitrate=N/A speed=20.3x    frame=33872 fps=486 q=-0.0 size=N/A time=00:23:32.74 bitrate=N/A speed=20.3x    frame=34074 fps=485 q=-0.0 size=N/A time=00:23:41.16 bitrate=N/A speed=20.2x    [Parsed_psnr_10 @ 0000029910a09cc0] PSNR y:48.874775 u:51.763115 v:51.850556 average:49.650782 min:39.815022 max:inf
[out#0/null @ 000002990e5b5880] video:14707KiB audio:268020KiB subtitle:0KiB other streams:0KiB global headers:0KiB muxing overhead: unknown
frame=34227 fps=485 q=-0.0 Lsize=N/A time=00:23:47.55 bitrate=N/A speed=20.2x    
